<?xml version="1.0" encoding="UTF-8" standalone="no"?>
<!-- Uploaded to: SVG Repo, www.svgrepo.com, Generator: SVG Repo Mixer Tools -->

<svg
   width="800px"
   height="800px"
   viewBox="0 0 64 64"
   stroke-width="3"
   stroke="#000000"
   fill="none"
   version="1.1"
   id="svg1"
   sodipodi:docname="person-male-svgrepo-com-green.svg"
   inkscape:version="1.3 (0e150ed6c4, 2023-07-21)"
   xmlns:inkscape="http://www.inkscape.org/namespaces/inkscape"
   xmlns:sodipodi="http://sodipodi.sourceforge.net/DTD/sodipodi-0.dtd"
   xmlns="http://www.w3.org/2000/svg"
   xmlns:svg="http://www.w3.org/2000/svg">
  <defs
     id="defs1" />
  <sodipodi:namedview
     id="namedview1"
     pagecolor="#ffffff"
     bordercolor="#666666"
     borderopacity="1.0"
     inkscape:showpageshadow="2"
     inkscape:pageopacity="0.0"
     inkscape:pagecheckerboard="0"
     inkscape:deskcolor="#d1d1d1"
     inkscape:zoom="1.01625"
     inkscape:cx="400.492"
     inkscape:cy="400"
     inkscape:window-width="1920"
     inkscape:window-height="1009"
     inkscape:window-x="-8"
     inkscape:window-y="-8"
     inkscape:window-maximized="1"
     inkscape:current-layer="svg1" />
  <circle
     cx="32"
     cy="18.14"
     r="11.14"
     id="circle1" />
  <path
     d="M54.55,56.85A22.55,22.55,0,0,0,32,34.3h0A22.55,22.55,0,0,0,9.45,56.85Z"
     id="path1" />
  <path
     style="fill:#008000;stroke:none;stroke-width:14.7601"
     d="m 396.92689,410.1034 c -80.38157,0.0165 -159.74152,34.72138 -214.75757,93.23902 -51.92371,54.45059 -83.093683,128.91352 -82.558747,204.40586 -0.165522,7.13434 -0.331044,14.26867 -0.496566,21.40301 200.500333,0 401.000673,0 601.501003,0 1.0876,-38.58497 -2.63306,-77.65469 -15.59426,-114.22394 C 657.8016,532.90727 593.5958,464.0632 513.24936,432.00357 476.43861,417.17351 436.66907,409.18881 396.92689,410.1034 Z m 5.87331,37.77483 c 84.97272,0.43765 168.49585,45.06885 215.16766,116.2227 25.86763,37.63528 40.5007,82.29948 44.41298,127.65799 -168.26456,-0.19926 -336.53251,0.45329 -504.7948,-0.47217 -6.57574,-0.31354 -13.4062,0.26143 -19.82466,-0.95388 4.28136,-53.12076 24.86097,-104.7358 58.74462,-145.91789 49.38426,-61.54728 127.42852,-97.90723 206.2942,-96.53675 z"
     id="path8"
     transform="scale(0.08)" />
  <path
     style="fill:#008000;stroke:none;stroke-width:14.7601"
     d="M 397.36316,69.009456 C 329.85751,68.45536 266.17715,117.66297 248.14922,182.48194 c -7.23589,21.86042 -5.79897,45.33796 -4.70828,67.97995 8.40422,53.75679 45.70871,102.32756 96.50179,122.53164 22.5899,9.64293 47.39304,13.09659 71.81542,11.05667 58.78943,-2.94945 113.11516,-43.45065 134.74402,-97.90863 10.37849,-24.52686 13.30894,-51.59816 10.3541,-77.95586 C 550.72185,148.98122 507.47,95.771211 451.03686,77.030394 c -17.19504,-6.34001 -35.44798,-8.219811 -53.6737,-8.020938 z m 4.2397,37.911284 c 34.05647,-0.35699 67.33955,15.5004 89.16052,41.53213 33.44797,36.73918 38.58928,94.95144 13.58586,137.60571 -20.1239,36.53635 -60.46665,60.47418 -102.17147,60.72376 -51.61513,2.10925 -101.22295,-34.0041 -116.46541,-83.09517 -14.52712,-43.34832 -1.5387,-94.4815 32.77664,-124.9366 22.26719,-20.65752 52.56812,-33.08085 83.11386,-31.82983 z"
     id="path9"
     transform="scale(0.08)" />
</svg>
